<?xml version="1.0" standalone="no"?>
<!DOCTYPE svg PUBLIC "-//W3C//DTD SVG 1.1//EN" "http://www.w3.org/Graphics/SVG/1.1/DTD/svg11.dtd" >
<svg xmlns="http://www.w3.org/2000/svg">
<metadata></metadata>
<defs>
<font id="gotham_htfmedium" horiz-adv-x="1372" >
<font-face units-per-em="2048" ascent="1638" descent="-410" />
<missing-glyph horiz-adv-x="614" />
<glyph unicode="&#xfb01;" horiz-adv-x="1355" d="M74 868v207h137v78q0 180 86 267t246 87q66 0 112.5 -8t87.5 -20v-209q-37 12 -70.5 19t-74.5 7q-143 0 -143 -163v-60h286v-205h-282v-868h-248v868h-137zM930 1247v236h266v-236h-266zM940 0v1081h248v-1081h-248z" />
<glyph unicode="&#xfb02;" horiz-adv-x="1355" d="M74 868v207h137v78q0 180 86 267t246 87q66 0 112.5 -8t87.5 -20v-209q-37 12 -70.5 19t-74.5 7q-143 0 -143 -163v-60h286v-205h-282v-868h-248v868h-137zM940 0v1495h248v-1495h-248z" />
<glyph horiz-adv-x="0" />
<glyph unicode="&#xd;" horiz-adv-x="614" />
<glyph unicode=" "  horiz-adv-x="614" />
<glyph unicode="&#x09;" horiz-adv-x="614" />
<glyph unicode="&#xa0;" horiz-adv-x="614" />
<glyph unicode="!" horiz-adv-x="618" d="M164 1362v72h291v-72l-76 -909h-137zM174 0v281h272v-281h-272z" />
<glyph unicode="&#x22;" horiz-adv-x="997" d="M123 821l47 613h281v-11l-199 -602h-129zM571 821l50 613h280v-11l-201 -602h-129z" />
<glyph unicode="#" horiz-adv-x="1433" d="M80 330v213h221l59 356h-204v213h241l56 322h219l-56 -322h336l54 322h219l-56 -322h183v-213h-219l-60 -356h205v-213h-242l-57 -330h-219l57 330h-336l-55 -330h-219l57 330h-184zM518 543h336l61 356h-335z" />
<glyph unicode="$" horiz-adv-x="1314" d="M100 207l131 186q88 -72 174.5 -116t186.5 -60v401q-113 29 -195 66t-136 87t-80.5 116.5t-26.5 152.5q0 84 30.5 153t88 120t136 81.5t175.5 39.5v118h178v-122q113 -14 206 -53.5t179 -102.5l-115 -193q-133 100 -278 131v-389q233 -57 338.5 -157.5t105.5 -266.5 q0 -84 -31.5 -153.5t-89 -120.5t-137.5 -83t-178 -40v-203h-178v205q-135 16 -257 67.5t-227 135.5zM395 1055q0 -66 39 -110t158 -79v361q-98 -8 -147.5 -56.5t-49.5 -115.5zM754 209q98 8 150 55t52 121q0 35 -9 62.5t-31.5 51t-62.5 43t-99 38.5v-371z" />
<glyph unicode="%" horiz-adv-x="1738" d="M98 1081q0 76 24.5 142.5t70 117t107.5 80t138 29.5t137.5 -28.5t105.5 -79t68.5 -117t24.5 -140.5q0 -76 -24.5 -142t-69.5 -116.5t-107.5 -80t-138.5 -29.5t-137 28.5t-105.5 78.5t-69 117t-24.5 140zM244 0l1048 1434h203l-1049 -1434h-202zM281 1085q0 -90 44 -150.5 t113 -60.5q72 0 113 60.5t41 146.5q0 90 -44 150.5t-114 60.5q-72 0 -112.5 -60.5t-40.5 -146.5zM965 348q0 76 24.5 142.5t69.5 116.5t107.5 80t138.5 30t137 -29t105 -79t68.5 -116.5t24.5 -140.5q0 -76 -24.5 -142.5t-69.5 -116.5t-107.5 -79.5t-138.5 -29.5t-137 28.5 t-105 78.5t-68.5 116.5t-24.5 140.5zM1147 352q0 -90 44 -150.5t114 -60.5q72 0 112.5 60.5t40.5 146.5q0 90 -44 150.5t-114 60.5q-72 0 -112.5 -60.5t-40.5 -146.5z" />
<glyph unicode="&#x26;" horiz-adv-x="1425" d="M80 391q0 141 79 240.5t226 163.5q-61 80 -90 150.5t-29 150.5q0 74 29 139t82 114.5t129 79t172 29.5q86 0 155.5 -26.5t120 -73.5t78 -110.5t27.5 -137.5q0 -143 -86 -232.5t-230 -142.5l246 -250q41 61 80 131t74 146l190 -100q-43 -86 -91 -169t-103 -159l225 -230 l-186 -133l-191 195q-92 -86 -200.5 -136t-239.5 -50q-100 0 -185.5 28.5t-147.5 82.5t-98 130t-36 170zM334 399q0 -92 67.5 -151.5t171.5 -59.5q74 0 141.5 33t129.5 92l-320 326q-100 -43 -145 -105.5t-45 -134.5zM502 1085q0 -55 24.5 -102t83.5 -113q111 41 168.5 93.5 t57.5 132.5q0 76 -46.5 120t-117.5 44q-78 0 -124 -48.5t-46 -126.5z" />
<glyph unicode="'" horiz-adv-x="550" d="M123 821l47 613h285v-11l-201 -602h-131z" />
<glyph unicode="(" horiz-adv-x="901" d="M129 588q0 293 143.5 508t423.5 368l109 -166q-109 -72 -189.5 -149.5t-134 -163.5t-79 -184.5t-25.5 -212.5q0 -229 105.5 -397t322.5 -314l-109 -166q-281 154 -424 369t-143 508z" />
<glyph unicode=")" horiz-adv-x="901" d="M98 -123q109 72 190 149.5t134 163.5t78.5 184.5t25.5 213.5q0 229 -104.5 398t-323.5 312l109 166q279 -154 423 -369.5t144 -506.5t-144.5 -507t-422.5 -370z" />
<glyph unicode="*" horiz-adv-x="880" d="M119 1008l233 102l-233 102l74 125l204 -149l-28 250h143l-29 -250l205 149l74 -125l-234 -102l234 -102l-74 -125l-205 149l29 -250h-143l28 250l-204 -149z" />
<glyph unicode="+" horiz-adv-x="1310" d="M145 608v226h394v391h233v-391h393v-226h-393v-391h-233v391h-394z" />
<glyph unicode="," horiz-adv-x="550" d="M70 -193q188 37 174 193h-105v281h273v-238q0 -172 -80 -250t-236 -90z" />
<glyph unicode="-" horiz-adv-x="835" d="M115 506v244h606v-244h-606z" />
<glyph unicode="." horiz-adv-x="550" d="M139 0v281h273v-281h-273z" />
<glyph unicode="/" horiz-adv-x="1067" d="M-51 -262l925 1896h216l-926 -1896h-215z" />
<glyph unicode="0" horiz-adv-x="1482" d="M117 715q0 154 45 290t127 236t197.5 158.5t256.5 58.5t256 -57.5t197 -157.5t126 -235t44 -289t-45 -290t-127 -236.5t-197.5 -159t-257.5 -58.5q-141 0 -255.5 57.5t-196.5 158t-126 235.5t-44 289zM377 719q0 -106 25.5 -200.5t73.5 -165t115.5 -110.5t151.5 -40 t151 40t114 109.5t72.5 163t25.5 199.5t-25.5 200.5t-74 164t-116 110.5t-151.5 41t-150.5 -40t-113.5 -108.5t-72.5 -162t-25.5 -201.5z" />
<glyph unicode="1" horiz-adv-x="811" d="M53 1321l385 123h176v-1444h-249v1188l-259 -72z" />
<glyph unicode="2" horiz-adv-x="1255" d="M100 0v199l494 419q74 61 125 111.5t83 95.5t46 88t14 93q0 106 -66.5 164.5t-164.5 58.5t-173 -53.5t-159 -161.5l-178 139q51 72 104.5 128t115.5 95t137 58.5t171 19.5q109 0 196 -30.5t148.5 -88t95 -136.5t33.5 -175q0 -86 -22.5 -154.5t-68.5 -132t-115.5 -128 t-165.5 -142.5l-295 -246h682v-221h-1037z" />
<glyph unicode="3" horiz-adv-x="1265" d="M88 227l176 164q78 -92 167 -140t210 -48q106 0 177 59.5t71 159.5q0 109 -88 166t-242 57h-117l-41 158l387 411h-620v220h948v-189l-399 -409q82 -10 158.5 -38t135 -76t93.5 -120t35 -172t-37 -183t-102.5 -143.5t-158.5 -94.5t-204 -34q-188 0 -322.5 71t-226.5 181z " />
<glyph unicode="4" horiz-adv-x="1394" d="M74 502l796 942h215v-916h205v-206h-205v-322h-241v322h-723zM373 528h471v568z" />
<glyph unicode="5" horiz-adv-x="1273" d="M96 195l156 182q86 -80 177 -126t192 -46q129 0 206.5 67.5t77.5 182.5q0 111 -81 175t-216 64q-78 0 -143.5 -18.5t-120.5 -44.5l-151 100l40 703h857v-224h-639l-23 -336q51 18 103.5 29.5t123.5 11.5q104 0 195.5 -27.5t159 -83.5t105.5 -141t38 -200q0 -111 -38 -201 t-107.5 -153.5t-168 -98.5t-216.5 -35q-166 0 -295 60.5t-232 159.5z" />
<glyph unicode="6" horiz-adv-x="1343" d="M117 676q0 166 39 308t115.5 247.5t192.5 166t267 60.5q139 0 241.5 -42t196.5 -118l-135 -194q-76 59 -146.5 92t-164.5 33q-80 0 -142.5 -34t-105.5 -95.5t-67.5 -144.5t-28.5 -181q29 29 61.5 54.5t74.5 45t92 32t114 12.5q104 0 195.5 -30t160 -88.5t107.5 -142.5 t39 -192q0 -109 -41 -199t-113 -154.5t-169 -100.5t-210 -36q-133 0 -230.5 39t-168.5 111q-41 41 -73 91t-54.5 116.5t-34.5 150.5t-12 193zM387 453q0 -113 81 -186.5t216 -73.5t211 74.5t76 187.5q0 111 -79 181.5t-214 70.5q-68 0 -121 -20.5t-91 -54.5t-58.5 -80 t-20.5 -99z" />
<glyph unicode="7" horiz-adv-x="1247" d="M139 1212v222h1008v-191l-647 -1243h-283l643 1212h-721z" />
<glyph unicode="8" horiz-adv-x="1290" d="M98 391q0 133 67.5 217t190.5 135q-90 47 -149.5 124t-59.5 198q0 84 38 154.5t103.5 123t158 82t198.5 29.5q109 0 200 -29.5t156.5 -82t103.5 -123t38 -154.5q0 -121 -59.5 -197.5t-149.5 -124.5q117 -53 187.5 -135t70.5 -211q0 -96 -41 -174t-114.5 -132t-174 -82.5 t-217.5 -28.5t-217 29.5t-174 82.5t-115 130t-41 169zM344 408q0 -92 80 -155t221 -63t221 63t80 155q0 49 -23.5 90t-63.5 69.5t-95 44t-119 15.5q-63 0 -118.5 -15.5t-95.5 -44t-63.5 -69.5t-23.5 -90zM389 1042q0 -96 73 -155.5t183 -59.5q111 0 183.5 59.5t72.5 153.5 q0 86 -69.5 144.5t-186.5 58.5t-186.5 -58.5t-69.5 -142.5z" />
<glyph unicode="9" horiz-adv-x="1343" d="M121 961q0 106 39 197t109.5 157.5t169 104.5t216.5 38q135 0 228.5 -38t169.5 -113q80 -80 127 -208t47 -341q0 -174 -42 -317.5t-121 -247t-192.5 -161t-259.5 -57.5q-150 0 -258 48.5t-200 123.5l137 193q82 -70 158.5 -102.5t168.5 -32.5q80 0 142.5 32.5t106.5 93 t70 143.5t28 181q-53 -66 -136.5 -108.5t-199.5 -42.5q-115 0 -208 31.5t-159.5 92t-103.5 144.5t-37 189zM373 973q0 -115 78.5 -186.5t214.5 -71.5q68 0 122 20.5t92 56t57 83t19 100.5q0 57 -21.5 105t-60 84t-94 56.5t-123.5 20.5q-135 0 -209.5 -78t-74.5 -190z" />
<glyph unicode=":" horiz-adv-x="571" d="M150 0v281h272v-281h-272zM150 801v280h272v-280h-272z" />
<glyph unicode=";" horiz-adv-x="571" d="M80 -193q188 37 174 193h-104v281h272v-238q0 -172 -80 -250t-236 -90zM150 801v280h272v-280h-272z" />
<glyph unicode="&#x3c;" horiz-adv-x="1310" d="M143 610v221l977 453v-235l-731 -326l731 -328v-237z" />
<glyph unicode="=" horiz-adv-x="1310" d="M176 350v230h959v-230h-959zM176 862v230h959v-230h-959z" />
<glyph unicode="&#x3e;" horiz-adv-x="1310" d="M190 158v235l732 326l-732 328v237l977 -453v-221z" />
<glyph unicode="?" horiz-adv-x="1107" d="M49 1225q90 102 209 164.5t285 62.5q109 0 196.5 -28.5t150 -83t97.5 -132.5t35 -174q0 -98 -33 -169.5t-88 -121t-130 -80t-161 -45.5l-20 -165h-166l-41 331l10 11q197 8 288 67.5t91 163.5q0 88 -62.5 142.5t-172.5 54.5q-98 0 -179.5 -42t-154.5 -120zM365 0v281h274 v-281h-274z" />
<glyph unicode="@" horiz-adv-x="2007" d="M109 561q0 184 69.5 347t190 285t284.5 193.5t353 71.5q188 0 351 -67.5t283.5 -179t189 -258t68.5 -306.5q0 -129 -32.5 -225t-87 -158.5t-126 -94.5t-151.5 -32q-121 0 -194.5 43t-108.5 101q-55 -57 -132 -100.5t-185 -43.5q-76 0 -143.5 28t-119 78t-80 121.5 t-28.5 159.5q0 109 39 202t104.5 162.5t149.5 108.5t172 39q111 0 179.5 -45t109.5 -106l24 123l199 -31l-90 -516q-4 -29 -7.5 -51.5t-3.5 -36.5q0 -66 42 -106t118 -40q55 0 104.5 27t86.5 79t58.5 131t21.5 183q0 141 -61.5 273.5t-170 234.5t-257 163.5t-322.5 61.5 t-324 -64.5t-259.5 -176t-171 -260t-61.5 -318.5t61.5 -318.5t172.5 -259t263.5 -174t334.5 -63.5q152 0 270.5 35t235.5 102l37 -61q-119 -72 -251 -113t-292 -41q-197 0 -363.5 71t-289.5 192.5t-191.5 283.5t-68.5 346zM719 537q0 -106 60.5 -164t156.5 -58 q55 0 106.5 26t90 70t62.5 102t24 126q0 98 -61.5 159.5t-153.5 61.5q-55 0 -107.5 -24.5t-91.5 -67.5t-62.5 -102.5t-23.5 -128.5z" />
<glyph unicode="A" horiz-adv-x="1617" d="M61 0l631 1444h234l630 -1444h-266l-145 346h-678l-148 -346h-258zM559 569h494l-248 574z" />
<glyph unicode="B" horiz-adv-x="1478" d="M184 0v1434h643q217 0 344 -98.5t127 -268.5q0 -66 -17 -117t-45 -89t-64.5 -66.5t-77.5 -49.5q63 -20 115.5 -50.5t90 -71.5t58 -97.5t20.5 -130.5q0 -96 -37.5 -169.5t-107.5 -124t-167 -76t-218 -25.5h-664zM432 223h418q129 0 202.5 50.5t73.5 148.5q0 92 -72.5 143 t-222.5 51h-399v-393zM432 829h344q123 0 197 48.5t74 148.5q0 88 -64.5 136t-187.5 48h-363v-381z" />
<glyph unicode="C" horiz-adv-x="1511" d="M121 715q0 154 54 289t152.5 236t234.5 159.5t298 58.5q98 0 179 -16.5t148.5 -46t125 -70.5t108.5 -90l-161 -186q-86 80 -182.5 129t-219.5 49q-102 0 -189 -40t-149.5 -108.5t-98.5 -161t-36 -198.5t36 -199.5t98.5 -163t149.5 -109.5t189 -40q66 0 121 13t104.5 37 t95.5 58.5t91 77.5l162 -164q-55 -57 -116 -104t-130.5 -81t-152.5 -51.5t-183 -17.5q-156 0 -290 57.5t-231.5 158t-152.5 234.5t-55 290z" />
<glyph unicode="D" horiz-adv-x="1601" d="M184 0v1434h535q170 0 309 -54.5t240.5 -150.5t157 -227t55.5 -283t-55.5 -283t-157 -228t-240.5 -152.5t-309 -55.5h-535zM436 229h283q113 0 205 36t156.5 100.5t100.5 154t36 195.5t-36 195t-100.5 154.5t-157 102.5t-204.5 37h-283v-975z" />
<glyph unicode="E" d="M184 0v1434h1063v-226h-811v-372h719v-226h-719v-385h821v-225h-1073z" />
<glyph unicode="F" horiz-adv-x="1343" d="M184 0v1434h1067v-230h-815v-391h723v-229h-723v-584h-252z" />
<glyph unicode="G" horiz-adv-x="1605" d="M121 715q0 152 54 287t152.5 236t234.5 160.5t298 59.5q94 0 171 -13t143.5 -38t124 -60.5t112.5 -82.5l-160 -191q-41 35 -84 63.5t-90 49t-103 31t-124 10.5q-98 0 -183 -40t-147.5 -109.5t-98.5 -162t-36 -196.5q0 -111 35 -205t99.5 -162.5t153.5 -107.5t199 -39 q102 0 191.5 29.5t155.5 78.5v269h-367v219h610v-602q-53 -45 -117.5 -86t-139.5 -72t-159.5 -48.5t-181.5 -17.5q-168 0 -305 56.5t-234.5 156t-150.5 234.5t-53 293z" />
<glyph unicode="H" horiz-adv-x="1556" d="M184 0v1434h252v-596h684v596h252v-1434h-252v604h-684v-604h-252z" />
<glyph unicode="I" horiz-adv-x="649" d="M199 0v1434h252v-1434h-252z" />
<glyph unicode="J" horiz-adv-x="1144" d="M43 211l166 170q63 -80 130 -124t159 -44q102 0 164.5 68.5t62.5 212.5v940h258v-947q0 -127 -36 -222t-99.5 -158.5t-151.5 -95t-194 -31.5q-166 0 -276.5 66.5t-182.5 164.5z" />
<glyph unicode="K" horiz-adv-x="1484" d="M184 0v1434h252v-721l682 721h309l-596 -617l623 -817h-305l-490 645l-223 -229v-416h-252z" />
<glyph unicode="L" horiz-adv-x="1267" d="M184 0v1434h252v-1205h754v-229h-1006z" />
<glyph unicode="M" horiz-adv-x="1777" d="M184 0v1434h269l436 -678l436 678h268v-1434h-252v1028l-452 -676h-8l-449 672v-1024h-248z" />
<glyph unicode="N" horiz-adv-x="1617" d="M184 0v1434h234l768 -992v992h248v-1434h-211l-791 1020v-1020h-248z" />
<glyph unicode="O" horiz-adv-x="1740" d="M121 715q0 152 55 287t155.5 236t238 160.5t302.5 59.5q166 0 303.5 -58.5t235.5 -158.5t153.5 -235t55.5 -287t-55.5 -287t-155.5 -236.5t-237.5 -161t-303.5 -59.5t-303 58.5t-235.5 159t-153.5 235.5t-55 287zM385 719q0 -104 36 -197.5t100.5 -163t154.5 -110.5 t196 -41t195.5 40t153 108.5t99.5 162t36 197.5t-36 197.5t-100.5 163t-154.5 110.5t-197 41q-106 0 -195 -40t-152.5 -108.5t-99.5 -162t-36 -197.5z" />
<glyph unicode="P" horiz-adv-x="1368" d="M184 0v1434h566q125 0 226 -34t172 -97.5t108.5 -151.5t37.5 -199q0 -121 -45 -213t-122.5 -153.5t-182 -93t-223.5 -31.5h-285v-461h-252zM436 688h293q143 0 226 70.5t83 187.5q0 129 -84 193.5t-225 64.5h-293v-516z" />
<glyph unicode="Q" horiz-adv-x="1740" d="M121 715q0 152 55 287t155.5 236t238 160.5t302.5 59.5q166 0 303.5 -58.5t235.5 -158.5t153.5 -235.5t55.5 -286.5q0 -123 -38 -235.5t-107 -207.5l163 -139l-161 -180l-172 154q-92 -63 -201 -99.5t-236 -36.5q-166 0 -303 58.5t-235.5 159t-153.5 235.5t-55 287z M385 719q0 -104 36 -197.5t100.5 -163t154.5 -110.5t196 -41q72 0 133.5 18.5t112.5 50.5l-246 209l162 185l248 -226q74 115 74 271q0 104 -36 197.5t-100.5 163t-154.5 110.5t-197 41q-106 0 -195 -40t-152.5 -108.5t-99.5 -162t-36 -197.5z" />
<glyph unicode="R" horiz-adv-x="1480" d="M184 0v1434h639q123 0 222.5 -32t168 -90.5t105.5 -143.5t37 -189q0 -178 -95.5 -286.5t-246.5 -149.5l387 -543h-297l-352 500h-316v-500h-252zM436 723h369q135 0 215 65.5t80 176.5q0 119 -78 179t-219 60h-367v-481z" />
<glyph unicode="S" horiz-adv-x="1310" d="M88 209l152 180q104 -90 210.5 -138t241.5 -48q117 0 185.5 49t68.5 133q0 39 -13 69.5t-49 57.5t-98.5 49.5t-162.5 44.5q-115 29 -204 61.5t-149.5 82t-92.5 118t-32 168.5q0 94 37 171t101.5 132.5t154.5 85t197 29.5q158 0 283.5 -46t236.5 -134l-135 -191 q-98 72 -194.5 110t-194.5 38q-111 0 -172.5 -50t-61.5 -122q0 -43 14.5 -74t52.5 -57.5t104.5 -49t168.5 -47.5q115 -27 201 -62.5t143.5 -85.5t87 -116.5t29.5 -156.5q0 -100 -38 -180t-105.5 -135.5t-161.5 -85t-207 -29.5q-166 0 -317.5 56t-280.5 173z" />
<glyph unicode="T" horiz-adv-x="1327" d="M82 1200v234h1163v-234h-454v-1200h-254v1200h-455z" />
<glyph unicode="U" horiz-adv-x="1550" d="M162 608v826h252v-816q0 -201 96 -305t266 -104q168 0 264.5 100.5t96.5 298.5v826h252v-813q0 -160 -44.5 -281t-124 -202t-193.5 -121t-255 -40q-139 0 -251.5 40t-192.5 120t-123 198t-43 273z" />
<glyph unicode="V" horiz-adv-x="1536" d="M61 1434h279l432 -1102l430 1102h273l-596 -1444h-222z" />
<glyph unicode="W" horiz-adv-x="2285" d="M74 1434h272l342 -1063l352 1067h213l353 -1067l342 1063h264l-500 -1444h-217l-352 1030l-352 -1030h-218z" />
<glyph unicode="X" horiz-adv-x="1492" d="M76 0l522 729l-502 705h297l357 -514l358 514h289l-500 -701l520 -733h-297l-377 543l-378 -543h-289z" />
<glyph unicode="Y" horiz-adv-x="1466" d="M37 1434h297l401 -635l406 635h289l-570 -863v-571h-254v565z" />
<glyph unicode="Z" horiz-adv-x="1437" d="M133 0v186l846 1024h-819v224h1147v-187l-846 -1024h846v-223h-1174z" />
<glyph unicode="[" horiz-adv-x="929" d="M180 -266v1700h629v-195h-393v-1311h393v-194h-629z" />
<glyph unicode="\" horiz-adv-x="1067" d="M-23 1634h216l925 -1896h-215z" />
<glyph unicode="]" horiz-adv-x="929" d="M121 -72h393v1311h-393v195h631v-1700h-631v194z" />
<glyph unicode="^" horiz-adv-x="1024" d="M115 1010l309 426h176l309 -426h-190l-209 270l-209 -270h-186z" />
<glyph unicode="_" horiz-adv-x="1228" d="M-4 -135h1237v-193h-1237v193z" />
<glyph unicode="`" horiz-adv-x="1024" d="M254 1454l225 100l217 -335h-192z" />
<glyph unicode="a" horiz-adv-x="1202" d="M82 311v4q0 88 32.5 154t91 109t139.5 64.5t175 21.5q98 0 167 -12.5t132 -33.5v27q0 113 -68.5 172.5t-197.5 59.5q-92 0 -164 -18.5t-145 -49.5l-68 199q90 41 184.5 65.5t227.5 24.5q242 0 358.5 -120t116.5 -337v-641h-246v133q-55 -66 -141 -111t-209 -45 q-76 0 -146.5 21.5t-123 63.5t-84 104.5t-31.5 144.5zM328 324q0 -78 60.5 -119t148.5 -41q61 0 113 16.5t91 46t60.5 71.5t21.5 93v68q-47 18 -111.5 30.5t-136.5 12.5q-117 0 -182 -45t-65 -129v-4z" />
<glyph unicode="b" d="M156 0v1495h247v-594q59 86 147.5 144.5t219.5 58.5q96 0 186.5 -37t161 -109.5t113.5 -177t43 -239.5t-42 -239.5t-112.5 -177.5t-162 -110t-187.5 -37q-133 0 -221 57.5t-146 133.5v-168h-247zM397 541q0 -80 26 -143.5t69 -109.5t100 -70.5t121 -24.5q63 0 119.5 24.5 t98.5 69.5t66.5 109.5t24.5 144.5t-24.5 144.5t-66.5 109.5t-98.5 69.5t-119.5 24.5t-120.5 -24.5t-100.5 -70.5t-69 -109.5t-26 -143.5z" />
<glyph unicode="c" horiz-adv-x="1169" d="M96 537q0 117 42 219t117 180t178.5 123t223.5 45q154 0 255.5 -51.5t177.5 -134.5l-154 -166q-57 59 -121.5 97t-159.5 38q-68 0 -125 -28t-98 -75t-64.5 -109.5t-23.5 -133.5q0 -74 23.5 -137.5t66.5 -110.5t102.5 -75t131.5 -28q88 0 154.5 38t125.5 98l150 -148 q-39 -45 -84 -82t-98.5 -63.5t-117 -42t-143.5 -15.5q-121 0 -223 44t-177 121t-117 178.5t-42 218.5z" />
<glyph unicode="d" d="M100 541q0 135 42 239.5t112 177t161 109.5t187 37q133 0 222 -57.5t147 -133.5v582h248v-1495h-248v180q-59 -84 -147.5 -143.5t-221.5 -59.5q-94 0 -185 37t-161 110t-113 177.5t-43 239.5zM350 541q0 -80 24.5 -144.5t67.5 -109.5t99.5 -69.5t120.5 -24.5 q61 0 118.5 24.5t100.5 70.5t68.5 109.5t25.5 143.5t-25.5 143.5t-68.5 109.5t-100.5 70.5t-118.5 24.5q-63 0 -120 -23.5t-100 -68.5t-67.5 -109.5t-24.5 -146.5z" />
<glyph unicode="e" horiz-adv-x="1236" d="M96 539q0 117 39 220t109.5 180t167 121t213.5 44q129 0 226 -47t161.5 -127t97.5 -186.5t33 -223.5q0 -16 -1 -32.5t-3 -34.5h-795q23 -133 107 -204t204 -71q92 0 160 33t133 96l146 -129q-78 -92 -185.5 -147.5t-257.5 -55.5q-117 0 -218 41t-176 115t-118 178.5 t-43 229.5zM342 616h555q-6 59 -26.5 111.5t-55.5 91.5t-83 60.5t-109 21.5q-115 0 -190 -79t-91 -206z" />
<glyph unicode="f" horiz-adv-x="770" d="M74 868v207h137v78q0 180 86 267t246 87q66 0 112.5 -8t87.5 -20v-209q-37 12 -70.5 19t-74.5 7q-143 0 -143 -163v-60h286v-205h-282v-868h-248v868h-137z" />
<glyph unicode="g" d="M100 594q0 121 41 215t109.5 159.5t158 100.5t183.5 35q137 0 226 -54.5t153 -129.5v161h248v-860q0 -287 -150.5 -420t-431.5 -133q-270 0 -483 129l92 187q86 -53 180 -84t205 -31q166 0 254 84t88 248v84q-68 -88 -158 -143.5t-223 -55.5q-94 0 -183.5 34t-158 99.5 t-109.5 159.5t-41 215zM350 596q0 -68 24.5 -123t65.5 -95t97.5 -61.5t119.5 -21.5q66 0 123.5 21.5t100.5 61.5t68.5 94t25.5 122t-25.5 124t-68.5 95t-100.5 60.5t-123.5 21.5q-63 0 -119.5 -21.5t-98.5 -60.5t-65.5 -94t-23.5 -123z" />
<glyph unicode="h" horiz-adv-x="1269" d="M156 0v1495h247v-582q53 78 133 134.5t205 56.5q184 0 284.5 -112.5t100.5 -303.5v-688h-247v614q0 127 -60.5 196t-171.5 69q-109 0 -176.5 -71t-67.5 -198v-610h-247z" />
<glyph unicode="i" horiz-adv-x="585" d="M160 1247v236h266v-236h-266zM170 0v1081h248v-1081h-248z" />
<glyph unicode="j" horiz-adv-x="585" d="M-16 -125q37 -6 69 -6q53 0 85 29.5t32 101.5v1081h248v-1095q0 -166 -81 -243t-235 -77q-35 0 -62.5 3t-55.5 7v199zM160 1247v236h266v-236h-266z" />
<glyph unicode="k" horiz-adv-x="1191" d="M156 0v1495h247v-893l449 479h301l-430 -440l444 -641h-286l-326 467l-152 -158v-309h-247z" />
<glyph unicode="l" horiz-adv-x="585" d="M170 0v1495h248v-1495h-248z" />
<glyph unicode="m" horiz-adv-x="1945" d="M156 0v1081h247v-163q27 37 58 69.5t70.5 59t90 42t111.5 15.5q117 0 198 -52.5t124 -138.5q66 86 154.5 138.5t211.5 52.5q178 0 278.5 -107.5t100.5 -306.5v-690h-248v614q0 129 -57 197t-162 68q-102 0 -166.5 -69t-64.5 -200v-610h-248v616q0 127 -57.5 195 t-161.5 68t-168 -72t-64 -199v-608h-247z" />
<glyph unicode="n" horiz-adv-x="1269" d="M156 0v1081h247v-168q53 78 133 134.5t205 56.5q184 0 284.5 -112.5t100.5 -303.5v-688h-247v614q0 127 -60.5 196t-171.5 69q-109 0 -176.5 -71t-67.5 -198v-610h-247z" />
<glyph unicode="o" horiz-adv-x="1345" d="M96 537q0 117 44 220t121 180t182.5 122t230.5 45t230.5 -44t182 -121t119.5 -179t43 -219t-44 -219.5t-120.5 -179t-183 -122t-231.5 -45.5q-123 0 -228.5 44t-182.5 121t-120 178.5t-43 218.5zM344 541q0 -72 24.5 -135.5t68.5 -111.5t104.5 -76t132.5 -28q76 0 136 28 t103 75t65.5 109.5t22.5 134.5t-24.5 136t-68.5 111t-104.5 75t-133.5 28q-74 0 -134.5 -28t-103.5 -75t-65.5 -109.5t-22.5 -133.5z" />
<glyph unicode="p" d="M156 -328v1409h247v-180q59 86 147.5 144.5t219.5 58.5q96 0 186.5 -37t161 -109.5t113.5 -177t43 -239.5t-42 -239.5t-112.5 -177.5t-162 -110t-187.5 -37q-133 0 -221 57.5t-146 133.5v-496h-247zM397 541q0 -80 26 -143.5t69 -109.5t100 -70.5t121 -24.5 q63 0 119.5 24.5t98.5 69.5t66.5 109.5t24.5 144.5t-24.5 144.5t-66.5 109.5t-98.5 69.5t-119.5 24.5t-120.5 -24.5t-100.5 -70.5t-69 -109.5t-26 -143.5z" />
<glyph unicode="q" d="M100 541q0 135 42 239.5t112 177t161 109.5t187 37q133 0 222 -57.5t147 -133.5v168h248v-1409h-248v508q-59 -84 -147.5 -143.5t-221.5 -59.5q-94 0 -185 37t-161 110t-113 177.5t-43 239.5zM350 541q0 -80 24.5 -144.5t67.5 -109.5t99.5 -69.5t120.5 -24.5 q61 0 118.5 24.5t100.5 70.5t68.5 109.5t25.5 143.5t-25.5 143.5t-68.5 109.5t-100.5 70.5t-118.5 24.5q-63 0 -120 -23.5t-100 -68.5t-67.5 -109.5t-24.5 -146.5z" />
<glyph unicode="r" horiz-adv-x="845" d="M156 0v1081h247v-243q51 122 145 196q87 68 217 68h21v-262h-14q-82 0 -149.5 -27t-116.5 -80t-76 -133t-27 -188v-412h-247z" />
<glyph unicode="s" horiz-adv-x="1024" d="M68 141l110 168q88 -66 179.5 -99.5t174.5 -33.5q80 0 124 32t44 85v4q0 31 -19 53.5t-53 40t-78 30.5t-91 28q-59 16 -119.5 38.5t-109 58.5t-79 89t-30.5 131v4q0 78 29.5 138.5t82 103.5t123 65.5t150.5 22.5q102 0 206.5 -33t190.5 -90l-98 -176q-78 47 -158 74.5 t-147 27.5q-72 0 -112 -30.5t-40 -77.5v-4q0 -29 20.5 -50.5t54.5 -39t78 -32t91 -30.5q59 -18 118.5 -43t107.5 -60.5t79 -87t31 -124.5v-5q0 -86 -31 -149.5t-85 -105t-128 -63t-158 -21.5q-117 0 -236.5 40.5t-221.5 120.5z" />
<glyph unicode="t" horiz-adv-x="839" d="M70 868v213h137v297h248v-297h290v-213h-290v-530q0 -72 34.5 -103.5t98.5 -31.5q80 0 153 37v-203q-47 -27 -100 -41t-123 -14q-68 0 -125 16t-99 53t-64.5 98.5t-22.5 149.5v569h-137z" />
<glyph unicode="u" horiz-adv-x="1269" d="M143 393v688h248v-614q0 -127 60.5 -195.5t171.5 -68.5q109 0 176 70.5t67 197.5v610h248v-1081h-248v168q-27 -39 -58.5 -73t-73.5 -60.5t-92 -42t-114 -15.5q-184 0 -284.5 113t-100.5 303z" />
<glyph unicode="v" horiz-adv-x="1218" d="M53 1081h266l291 -794l293 794h260l-442 -1089h-223z" />
<glyph unicode="w" horiz-adv-x="1763" d="M66 1081h253l218 -741l239 745h211l242 -745l221 741h248l-355 -1089h-221l-241 739l-244 -739h-221z" />
<glyph unicode="x" horiz-adv-x="1187" d="M61 0l398 549l-383 532h270l250 -356l250 356h264l-383 -526l399 -555h-270l-266 379l-264 -379h-265z" />
<glyph unicode="y" horiz-adv-x="1220" d="M53 1081h264l308 -802l280 802h258l-430 -1112q-33 -84 -67.5 -141t-77.5 -93t-94.5 -52.5t-116.5 -16.5q-78 0 -138.5 17.5t-117.5 48.5l84 184q35 -18 70.5 -29.5t74.5 -11.5q53 0 88 26.5t66 98.5z" />
<glyph unicode="z" horiz-adv-x="1146" d="M106 0v170l625 709h-602v202h918v-170l-625 -708h625v-203h-941z" />
<glyph unicode="{" horiz-adv-x="997" d="M106 494v188h54q129 0 180 52t51 173q0 12 -1 33t-1 42.5t-1 40.5t-1 32q0 80 20.5 144.5t72.5 114.5t142.5 88t229.5 62l43 -164q-92 -25 -147.5 -51t-84 -58t-38 -74t-9.5 -97q0 -31 2.5 -75t2.5 -77q0 -121 -55.5 -184t-157.5 -96q104 -35 158.5 -97.5t54.5 -183.5 q0 -33 -2.5 -77t-2.5 -74q0 -55 9.5 -97.5t38 -74t84 -58t147.5 -51.5l-43 -164q-139 25 -229.5 63t-142.5 88t-72.5 114.5t-20.5 144.5q0 12 1 31.5t1 41t1 42t1 32.5q0 121 -51 173.5t-180 52.5h-54z" />
<glyph unicode="|" horiz-adv-x="677" d="M240 -262v1896h198v-1896h-198z" />
<glyph unicode="}" horiz-adv-x="997" d="M102 -125q92 25 147.5 51.5t84 58t38 73.5t9.5 98q0 31 -2 74.5t-2 76.5q0 121 55 184.5t158 96.5q-104 35 -158.5 97.5t-54.5 182.5q0 33 2 77t2 75q0 55 -9.5 97t-38 74t-83.5 58.5t-148 50.5l43 164q139 -25 229.5 -62.5t142.5 -87.5t72.5 -114.5t20.5 -144.5 q0 -12 -1 -31.5t-1 -41t-1 -42t-1 -33.5q0 -121 51.5 -173t180.5 -52h53v-188h-53q-129 0 -180.5 -52.5t-51.5 -173.5q0 -12 1 -32.5t1 -42t1 -41t1 -31.5q0 -80 -20.5 -144.5t-72.5 -114.5t-142 -88t-230 -63z" />
<glyph unicode="~" horiz-adv-x="1013" d="M121 512q35 123 85 188.5t144 65.5q43 0 84 -12.5t78 -27.5t70.5 -28.5t60.5 -13.5q45 0 67.5 24.5t45.5 77.5l137 -41q-35 -125 -85 -190.5t-144 -65.5q-43 0 -84 13.5t-78 29t-71 27.5t-60 12q-45 0 -67.5 -24.5t-45.5 -77.5z" />
<glyph unicode="&#xa1;" horiz-adv-x="618" d="M164 0v72l78 909h137l76 -909v-72h-291zM174 1153v281h272v-281h-272z" />
<glyph unicode="&#xa2;" horiz-adv-x="1189" d="M106 725q0 117 42 219.5t117 179t177.5 121.5t223.5 45h18l31 156h180l-37 -182q78 -23 135.5 -65t106.5 -95l-150 -160q-35 33 -68.5 58.5t-74.5 41.5l-129 -661q6 -2 20 -2q78 4 142.5 41t117.5 90l144 -141q-80 -92 -183.5 -148.5t-250.5 -58.5q-16 0 -25 2l-33 -178 h-180l41 207q-80 29 -147.5 81t-115.5 121.5t-75 152.5t-27 175zM348 729q0 -104 47 -187t127 -126l127 659h-4q-63 -2 -118.5 -30.5t-94.5 -75.5t-61.5 -108.5t-22.5 -131.5z" />
<glyph unicode="&#xa3;" horiz-adv-x="1318" d="M129 0v160l162 49v360h-162v213h162v189q0 223 123 353t348 130q86 0 153.5 -17.5t122 -48t97.5 -72.5t79 -91l-192 -154q-55 72 -113.5 111t-144.5 39q-104 0 -161.5 -69t-57.5 -187v-183h510v-213h-510v-350h665v-219h-1081z" />
<glyph unicode="&#xa4;" horiz-adv-x="1474" d="M106 461v174h158q-2 20 -2 39.5v40.5v47t4 47h-160v174h193q31 104 85 191.5t128 149.5t167 98t202 36q94 0 168.5 -20.5t134 -56t107.5 -85t89 -108.5l-190 -141q-66 90 -136.5 138t-179.5 48q-111 0 -191.5 -66.5t-121.5 -183.5h438v-174h-479q-2 -23 -3 -45.5 t-1 -44.5q0 -23 1 -42.5t3 -41.5h479v-174h-442q41 -121 127 -190.5t207 -69.5q102 0 173 51t140 143l180 -131q-43 -63 -93 -116.5t-110.5 -91.5t-132 -59.5t-159.5 -21.5q-113 0 -210 35t-173 99.5t-130 153.5t-83 198h-187z" />
<glyph unicode="&#xa5;" horiz-adv-x="1404" d="M39 1434h293l375 -600l374 600h285l-475 -711h328v-182h-396v-150h396v-182h-396v-209h-241v209h-396v182h396v150h-396v182h326z" />
<glyph unicode="&#xa7;" horiz-adv-x="1294" d="M119 717q0 98 60.5 155.5t158.5 83.5q-113 72 -113 197q0 137 105.5 219t296.5 82q152 0 269.5 -51t203.5 -143l-142 -140q-72 66 -151.5 106t-177.5 40q-86 0 -126 -29t-40 -74q0 -23 11 -41t41 -34.5t83 -34t135 -35.5q119 -27 203 -56.5t137 -64.5t78 -79t25 -101 q0 -98 -60.5 -155.5t-159.5 -84.5q113 -72 113 -196q0 -137 -105.5 -219t-295.5 -82q-152 0 -269.5 51t-203.5 143l141 139q72 -66 151.5 -105.5t178.5 -39.5q86 0 125.5 28.5t39.5 73.5q0 23 -11 41.5t-40.5 34.5t-82 33.5t-136.5 36.5q-238 53 -340 120.5t-102 180.5z M342 752q0 -47 54.5 -80t185.5 -66q78 -20 128 -28.5t85 -8.5q74 0 115.5 33t41.5 80t-54 80t-185 65q-80 20 -129 28.5t-84 8.5q-74 0 -116 -32.5t-42 -79.5z" />
<glyph unicode="&#xa8;" horiz-adv-x="1024" d="M182 1219v241h252v-241h-252zM590 1219v241h252v-241h-252z" />
<glyph unicode="&#xa9;" horiz-adv-x="1699" d="M109 715q0 152 57 287t157.5 236t236.5 160.5t292 59.5t291 -58.5t234.5 -158.5t156.5 -235t57 -287t-57 -287t-157.5 -236.5t-236.5 -161t-292 -59.5t-291 58.5t-234.5 159t-156.5 235.5t-57 287zM186 715q0 -137 50.5 -259t139.5 -212t210 -142.5t262 -52.5t263 53.5 t211 143.5t140 213t51 260q0 139 -50 260t-139 211t-210 142t-262 52t-263 -53t-211 -143t-140.5 -212t-51.5 -261zM465 725q0 84 29.5 156.5t82 128t125 87t160.5 31.5q111 0 180.5 -33.5t124.5 -86.5l-96 -111q-45 41 -96 66.5t-113 25.5q-53 0 -97 -20.5t-77 -56t-50 -83 t-17 -102.5q0 -53 18 -101t50 -84t77 -56.5t96 -20.5q70 0 118 25.5t95 70.5l99 -96q-61 -66 -133 -102.5t-183 -36.5q-84 0 -156.5 30.5t-125 85t-82 127t-29.5 156.5z" />
<glyph unicode="&#xaa;" horiz-adv-x="798" d="M109 578v118h553v-118h-553zM115 1012q0 98 67.5 145t177.5 47q49 0 85 -6t71 -16v10q0 125 -143 125q-47 0 -87 -11.5t-83 -27.5l-39 111q53 25 104 38t125 13q131 0 195.5 -64.5t64.5 -185.5v-352h-139v69q-33 -37 -78 -59.5t-110 -22.5q-43 0 -81 12.5t-66.5 35 t-46 58.5t-17.5 81zM256 1018q0 -43 29.5 -65.5t76.5 -22.5q66 0 110 34.5t44 88.5v37q-27 10 -57.5 16t-71.5 6q-61 0 -96 -24.5t-35 -69.5z" />
<glyph unicode="&#xab;" horiz-adv-x="1241" d="M90 532v17l340 450l188 -96l-270 -360l270 -363l-188 -96zM606 532v17l338 450l189 -96l-271 -360l271 -363l-189 -96z" />
<glyph unicode="&#xad;" horiz-adv-x="835" d="M115 506v244h606v-244h-606z" />
<glyph unicode="&#xae;" horiz-adv-x="1699" d="M109 715q0 152 57 287t157.5 236t236.5 160.5t292 59.5t291 -58.5t234.5 -158.5t156.5 -235t57 -287t-57 -287t-157.5 -236.5t-236.5 -161t-292 -59.5t-291 58.5t-234.5 159t-156.5 235.5t-57 287zM186 715q0 -137 50.5 -259t139.5 -212t210 -142.5t262 -52.5t263 53.5 t211 143.5t140 213t51 260q0 139 -50 260t-139 211t-210 142t-262 52t-263 -53t-211 -143t-140.5 -212t-51.5 -261zM551 350v776h346q135 0 217 -65t82 -182q0 -96 -50 -154.5t-130 -81.5l209 -293h-176l-189 268h-162v-268h-147zM698 748h193q72 0 112.5 32.5t40.5 89.5 q0 59 -40.5 91t-112.5 32h-193v-245z" />
<glyph unicode="&#xaf;" horiz-adv-x="1024" d="M162 1229v182h700v-182h-700z" />
<glyph unicode="&#xb0;" horiz-adv-x="964" d="M141 1114q0 68 28 127t75 105.5t108.5 73t128.5 26.5q68 0 129.5 -26.5t109.5 -73t75.5 -105.5t27.5 -127t-27.5 -128t-75.5 -106t-109.5 -73t-129.5 -27t-129 27t-108 73t-75 106.5t-28 127.5zM289 1114q0 -39 14 -76t40 -63.5t61.5 -43t76.5 -16.5q43 0 78 16.5 t61.5 43t41 63.5t14.5 76t-14.5 75t-41 62.5t-61.5 43t-78 16.5q-41 0 -76.5 -16.5t-61.5 -43t-40 -62.5t-14 -75z" />
<glyph unicode="&#xb1;" horiz-adv-x="1249" d="M80 225l174 162q76 -86 169 -135t218 -49q119 0 187.5 56t68.5 153q0 100 -83 152t-232 52h-154v213h160q125 0 197.5 56.5t72.5 150.5q0 86 -65.5 140.5t-182.5 54.5q-104 0 -179 -48t-146 -132l-176 143q92 121 209.5 192.5t295.5 71.5q111 0 202 -28.5t155.5 -80 t100.5 -122t36 -154.5q0 -68 -16.5 -121t-46 -94t-68.5 -70.5t-82 -52.5q53 -20 99 -49t80 -68.5t53.5 -90.5t19.5 -117q0 -92 -35 -172t-100.5 -138.5t-159.5 -91.5t-215 -33q-176 0 -317.5 69t-239.5 181z" />
<glyph unicode="&#xb4;" horiz-adv-x="1024" d="M328 1219l217 335l225 -100l-250 -235h-192z" />
<glyph unicode="&#xb6;" horiz-adv-x="1140" d="M82 967q0 111 41 196.5t113.5 146t175 92.5t225.5 32h326v-1434h-254v500h-37q-125 0 -233.5 29.5t-187.5 88t-124 146.5t-45 203z" />
<glyph unicode="&#xb7;" horiz-adv-x="550" d="M139 487v281h273v-281h-273z" />
<glyph unicode="&#xb8;" horiz-adv-x="1024" d="M268 -248l185 268h186l-154 -358z" />
<glyph unicode="&#xba;" horiz-adv-x="798" d="M90 1133q0 66 23.5 122t65.5 98t98.5 66.5t123.5 24.5q66 0 122.5 -24.5t97.5 -65.5t64.5 -97t23.5 -122q0 -63 -23.5 -121t-65.5 -100t-98.5 -66.5t-124.5 -24.5q-66 0 -122 24.5t-97 65.5t-64.5 98.5t-23.5 121.5zM104 578v118h590v-118h-590zM233 1135 q0 -76 47.5 -130.5t120.5 -54.5q76 0 120 53.5t44 129.5t-47 130t-121 54q-76 0 -120 -53.5t-44 -128.5z" />
<glyph unicode="&#xbb;" horiz-adv-x="1241" d="M109 178l270 361l-270 362l188 98l338 -450v-17l-338 -448zM623 178l270 361l-270 362l188 98l340 -450v-17l-340 -448z" />
<glyph unicode="&#xbf;" horiz-adv-x="1107" d="M86 399q0 98 33 170t88 121t130 80t161 45l20 166h166l41 -332l-10 -10q-197 -8 -288 -67.5t-91 -163.5q0 -88 62.5 -142.5t172.5 -54.5q98 0 179 42t155 120l154 -164q-90 -102 -209 -164.5t-285 -62.5q-106 0 -195 28.5t-151.5 82.5t-97.5 132t-35 174zM469 1153v281 h274v-281h-274z" />
<glyph unicode="&#xc0;" horiz-adv-x="1617" d="M61 0l631 1444h234l630 -1444h-266l-145 346h-678l-148 -346h-258zM469 1788l225 100l217 -335h-192zM559 569h494l-248 574z" />
<glyph unicode="&#xc1;" horiz-adv-x="1617" d="M61 0l631 1444h234l630 -1444h-266l-145 346h-678l-148 -346h-258zM559 569h494l-248 574zM707 1552l217 336l225 -100l-250 -236h-192z" />
<glyph unicode="&#xc2;" horiz-adv-x="1617" d="M61 0l631 1444h234l630 -1444h-266l-145 346h-678l-148 -346h-258zM457 1551l237 299h230l237 -299h-196l-158 137l-158 -137h-192zM559 569h494l-248 574z" />
<glyph unicode="&#xc3;" horiz-adv-x="1617" d="M61 0l631 1444h234l630 -1444h-266l-145 346h-678l-148 -346h-258zM422 1573q35 125 85 190.5t144 65.5q43 0 84 -12.5t79 -27.5t72 -28.5t60 -13.5q45 0 67.5 24.5t45.5 77.5l137 -43q-35 -123 -85 -188.5t-144 -65.5q-43 0 -84 13.5t-79 29t-71 27.5t-61 12 q-45 0 -67.5 -24.5t-45.5 -77.5zM559 569h494l-248 574z" />
<glyph unicode="&#xc4;" horiz-adv-x="1617" d="M61 0l631 1444h234l630 -1444h-266l-145 346h-678l-148 -346h-258zM479 1553v241h252v-241h-252zM559 569h494l-248 574zM887 1553v241h252v-241h-252z" />
<glyph unicode="&#xc5;" horiz-adv-x="1617" d="M61 0l611 1401q-41 31 -69 77t-28 103q0 47 19.5 88t51.5 72t75 48t88 17q47 0 89 -17t74 -48t51 -72t19 -88q0 -57 -27.5 -103t-68.5 -77l610 -1401h-266l-145 346h-678l-148 -346h-258zM559 569h494l-248 574zM682 1581q0 -53 37 -90t90 -37t90 37t37 90t-37 90t-90 37 t-90 -37t-37 -90z" />
<glyph unicode="&#xc6;" horiz-adv-x="2140" d="M25 0l800 1434h1190v-226h-766v-372h674v-226h-674v-385h776v-225h-1028v346h-522l-190 -346h-260zM596 569h401v645h-41z" />
<glyph unicode="&#xc7;" horiz-adv-x="1511" d="M121 715q0 154 54 289t152.5 236t234.5 159.5t298 58.5q98 0 179 -16.5t148.5 -46t125 -70.5t108.5 -90l-161 -186q-86 80 -182.5 129t-219.5 49q-102 0 -189 -40t-149.5 -108.5t-98.5 -161t-36 -198.5t36 -199.5t98.5 -163t149.5 -109.5t189 -40q66 0 121 13t104.5 37 t95.5 58.5t91 77.5l162 -164q-51 -55 -107.5 -99t-121 -77t-140.5 -52t-168 -24l-135 -315l-215 90l162 238q-129 25 -237 89t-185.5 160.5t-120.5 217.5t-43 258z" />
<glyph unicode="&#xc8;" d="M184 0v1434h1063v-226h-811v-372h719v-226h-719v-385h821v-225h-1073zM420 1788l225 100l217 -336h-192z" />
<glyph unicode="&#xc9;" d="M184 0v1434h1063v-226h-811v-372h719v-226h-719v-385h821v-225h-1073zM568 1553l217 335l225 -100l-250 -235h-192z" />
<glyph unicode="&#xca;" d="M184 0v1434h1063v-226h-811v-372h719v-226h-719v-385h821v-225h-1073zM358 1552l238 299h229l238 -299h-197l-157 138l-158 -138h-193z" />
<glyph unicode="&#xcb;" d="M184 0v1434h1063v-226h-811v-372h719v-226h-719v-385h821v-225h-1073zM381 1553v241h252v-241h-252zM789 1553v241h252v-241h-252z" />
<glyph unicode="&#xcc;" horiz-adv-x="649" d="M-12 1788l225 100l217 -336h-192zM199 0v1434h252v-1434h-252z" />
<glyph unicode="&#xcd;" horiz-adv-x="649" d="M199 0v1434h252v-1434h-252zM224 1553l217 335l225 -100l-250 -235h-192z" />
<glyph unicode="&#xce;" horiz-adv-x="649" d="M-27 1552l238 299h229l238 -299h-197l-157 138l-158 -138h-193zM199 0v1434h252v-1434h-252z" />
<glyph unicode="&#xcf;" horiz-adv-x="649" d="M-4 1552v242h252v-242h-252zM199 0v1434h252v-1434h-252zM403 1552v242h252v-242h-252z" />
<glyph unicode="&#xd0;" horiz-adv-x="1662" d="M92 608v226h154v600h534q170 0 309.5 -54.5t241 -150.5t156.5 -227.5t55 -282.5q0 -152 -55 -283t-156.5 -228t-241 -152.5t-309.5 -55.5h-534v608h-154zM496 229h284q113 0 205 36t156.5 100.5t100.5 153.5t36 196q0 106 -36 195t-100.5 154.5t-156.5 102.5t-205 37 h-284v-370h360v-226h-360v-379z" />
<glyph unicode="&#xd1;" horiz-adv-x="1617" d="M184 0v1434h234l768 -992v992h248v-1434h-211l-791 1020v-1020h-248zM422 1573q35 125 85 190.5t144 65.5q43 0 84 -12.5t79 -27.5t72 -28.5t60 -13.5q45 0 67.5 24.5t45.5 78.5l137 -43q-35 -123 -85 -188.5t-144 -65.5q-43 0 -84 13t-79 28.5t-71 27.5t-61 12 q-45 0 -67.5 -24.5t-45.5 -77.5z" />
<glyph unicode="&#xd2;" horiz-adv-x="1740" d="M121 715q0 152 55 287t155.5 236t238 160.5t302.5 59.5q166 0 303.5 -58.5t235.5 -158.5t153.5 -235t55.5 -287t-55.5 -287t-155.5 -236.5t-237.5 -161t-303.5 -59.5t-303 58.5t-235.5 159t-153.5 235.5t-55 287zM385 719q0 -104 36 -197.5t100.5 -163t154.5 -110.5 t196 -41t195.5 40t153 108.5t99.5 162t36 197.5t-36 197.5t-100.5 163t-154.5 110.5t-197 41q-106 0 -195 -40t-152.5 -108.5t-99.5 -162t-36 -197.5zM516 1788l225 100l217 -336h-192z" />
<glyph unicode="&#xd3;" horiz-adv-x="1740" d="M121 715q0 152 55 287t155.5 236t238 160.5t302.5 59.5q166 0 303.5 -58.5t235.5 -158.5t153.5 -235t55.5 -287t-55.5 -287t-155.5 -236.5t-237.5 -161t-303.5 -59.5t-303 58.5t-235.5 159t-153.5 235.5t-55 287zM385 719q0 -104 36 -197.5t100.5 -163t154.5 -110.5 t196 -41t195.5 40t153 108.5t99.5 162t36 197.5t-36 197.5t-100.5 163t-154.5 110.5t-197 41q-106 0 -195 -40t-152.5 -108.5t-99.5 -162t-36 -197.5zM782 1552l217 336l226 -100l-250 -236h-193z" />
<glyph unicode="&#xd4;" horiz-adv-x="1740" d="M121 715q0 152 55 287t155.5 236t238 160.5t302.5 59.5q166 0 303.5 -58.5t235.5 -158.5t153.5 -235t55.5 -287t-55.5 -287t-155.5 -236.5t-237.5 -161t-303.5 -59.5t-303 58.5t-235.5 159t-153.5 235.5t-55 287zM385 719q0 -104 36 -197.5t100.5 -163t154.5 -110.5 t196 -41t195.5 40t153 108.5t99.5 162t36 197.5t-36 197.5t-100.5 163t-154.5 110.5t-197 41q-106 0 -195 -40t-152.5 -108.5t-99.5 -162t-36 -197.5zM518 1552l238 299h229l238 -299h-197l-158 138l-157 -138h-193z" />
<glyph unicode="&#xd5;" horiz-adv-x="1740" d="M121 715q0 152 55 287t155.5 236t238 160.5t302.5 59.5q166 0 303.5 -58.5t235.5 -158.5t153.5 -235t55.5 -287t-55.5 -287t-155.5 -236.5t-237.5 -161t-303.5 -59.5t-303 58.5t-235.5 159t-153.5 235.5t-55 287zM385 719q0 -104 36 -197.5t100.5 -163t154.5 -110.5 t196 -41t195.5 40t153 108.5t99.5 162t36 197.5t-36 197.5t-100.5 163t-154.5 110.5t-197 41q-106 0 -195 -40t-152.5 -108.5t-99.5 -162t-36 -197.5zM483 1573q35 125 85 190.5t144 65.5q43 0 84 -12.5t79 -27.5t72 -28.5t60 -13.5q45 0 67.5 24.5t45.5 78.5l137 -43 q-35 -123 -85 -188.5t-144 -65.5q-43 0 -84 13t-79 28.5t-71 27.5t-61 12q-45 0 -67.5 -24.5t-45.5 -77.5z" />
<glyph unicode="&#xd6;" horiz-adv-x="1740" d="M121 715q0 152 55 287t155.5 236t238 160.5t302.5 59.5q166 0 303.5 -58.5t235.5 -158.5t153.5 -235t55.5 -287t-55.5 -287t-155.5 -236.5t-237.5 -161t-303.5 -59.5t-303 58.5t-235.5 159t-153.5 235.5t-55 287zM385 719q0 -104 36 -197.5t100.5 -163t154.5 -110.5 t196 -41t195.5 40t153 108.5t99.5 162t36 197.5t-36 197.5t-100.5 163t-154.5 110.5t-197 41q-106 0 -195 -40t-152.5 -108.5t-99.5 -162t-36 -197.5zM540 1553v241h252v-241h-252zM948 1553v241h252v-241h-252z" />
<glyph unicode="&#xd8;" horiz-adv-x="1740" d="M104 -10l203 229q-90 98 -138 225t-48 271q0 152 55 287t155.5 236t238 160.5t302.5 59.5q121 0 225.5 -31.5t192.5 -91.5l99 109h247l-202 -230q90 -98 138 -225t48 -270q0 -152 -55.5 -287t-155.5 -236.5t-237.5 -161t-303.5 -59.5q-121 0 -225 32t-192 91l-99 -108 h-248zM379 719q0 -86 24.5 -164t71.5 -143l655 739q-53 37 -119.5 58.5t-142.5 21.5q-106 0 -196 -41t-155.5 -110.5t-101.5 -163t-36 -197.5zM610 283q53 -37 120 -58.5t142 -21.5q109 0 198 41t154.5 110.5t101.5 163t36 197.5q0 86 -24.5 163.5t-71.5 143.5z" />
<glyph unicode="&#xd9;" horiz-adv-x="1550" d="M162 608v826h252v-816q0 -201 96 -305t266 -104q168 0 264.5 100.5t96.5 298.5v826h252v-813q0 -160 -44.5 -281t-124 -202t-193.5 -121t-255 -40q-139 0 -251.5 40t-192.5 120t-123 198t-43 273zM449 1778l225 100l217 -336h-193z" />
<glyph unicode="&#xda;" horiz-adv-x="1550" d="M162 608v826h252v-816q0 -201 96 -305t266 -104q168 0 264.5 100.5t96.5 298.5v826h252v-813q0 -160 -44.5 -281t-124 -202t-193.5 -121t-255 -40q-139 0 -251.5 40t-192.5 120t-123 198t-43 273zM660 1543l217 335l225 -100l-250 -235h-192z" />
<glyph unicode="&#xdb;" horiz-adv-x="1550" d="M162 608v826h252v-816q0 -201 96 -305t266 -104q168 0 264.5 100.5t96.5 298.5v826h252v-813q0 -160 -44.5 -281t-124 -202t-193.5 -121t-255 -40q-139 0 -251.5 40t-192.5 120t-123 198t-43 273zM424 1550l238 299h229l237 -299h-196l-158 138l-158 -138h-192z" />
<glyph unicode="&#xdc;" horiz-adv-x="1550" d="M162 608v826h252v-816q0 -201 96 -305t266 -104q168 0 264.5 100.5t96.5 298.5v826h252v-813q0 -160 -44.5 -281t-124 -202t-193.5 -121t-255 -40q-139 0 -251.5 40t-192.5 120t-123 198t-43 273zM446 1550v242h252v-242h-252zM854 1550v242h252v-242h-252z" />
<glyph unicode="&#xdd;" horiz-adv-x="1466" d="M37 1434h297l401 -635l406 635h289l-570 -863v-571h-254v565zM637 1543l217 335l225 -100l-250 -235h-192z" />
<glyph unicode="&#xde;" horiz-adv-x="1378" d="M184 0v1434h252v-226h314q125 0 226 -33.5t172 -96t108.5 -151.5t37.5 -198q0 -123 -45 -215t-122.5 -153.5t-182 -92t-223.5 -30.5h-285v-238h-252zM436 463h293q143 0 226 71.5t83 188.5q0 129 -84 193.5t-225 64.5h-293v-518z" />
<glyph unicode="&#xdf;" horiz-adv-x="1269" d="M156 0v1028q0 111 33.5 200t97 151.5t153.5 96t203 33.5q104 0 186 -29.5t138.5 -81.5t86 -123t29.5 -153q0 -70 -18 -124t-49 -97t-72 -74.5t-86 -56.5q61 -20 117.5 -51t99.5 -75t68.5 -103.5t25.5 -137.5q0 -100 -39.5 -178t-112.5 -130t-177.5 -77.5t-233.5 -21.5 v190q150 4 233 60.5t83 163.5q0 102 -87 160.5t-229 74.5v168q98 47 165 115.5t67 171.5q0 92 -56.5 145t-150.5 53q-102 0 -166 -70.5t-64 -191.5v-1036h-245z" />
<glyph unicode="&#xe0;" horiz-adv-x="1202" d="M82 311v4q0 88 32.5 154t91 109t139.5 64.5t175 21.5q98 0 167 -12.5t132 -33.5v27q0 113 -68.5 172.5t-197.5 59.5q-92 0 -164 -18.5t-145 -49.5l-68 199q90 41 184.5 65.5t227.5 24.5q242 0 358.5 -120t116.5 -337v-641h-246v133q-55 -66 -141 -111t-209 -45 q-76 0 -146.5 21.5t-123 63.5t-84 104.5t-31.5 144.5zM276 1454l226 100l217 -335h-193zM328 324q0 -78 60.5 -119t148.5 -41q61 0 113 16.5t91 46t60.5 71.5t21.5 93v68q-47 18 -111.5 30.5t-136.5 12.5q-117 0 -182 -45t-65 -129v-4z" />
<glyph unicode="&#xe1;" horiz-adv-x="1202" d="M82 311v4q0 88 32.5 154t91 109t139.5 64.5t175 21.5q98 0 167 -12.5t132 -33.5v27q0 113 -68.5 172.5t-197.5 59.5q-92 0 -164 -18.5t-145 -49.5l-68 199q90 41 184.5 65.5t227.5 24.5q242 0 358.5 -120t116.5 -337v-641h-246v133q-55 -66 -141 -111t-209 -45 q-76 0 -146.5 21.5t-123 63.5t-84 104.5t-31.5 144.5zM328 324q0 -78 60.5 -119t148.5 -41q61 0 113 16.5t91 46t60.5 71.5t21.5 93v68q-47 18 -111.5 30.5t-136.5 12.5q-117 0 -182 -45t-65 -129v-4zM482 1219l217 335l225 -100l-250 -235h-192z" />
<glyph unicode="&#xe2;" horiz-adv-x="1202" d="M82 311v4q0 88 32.5 154t91 109t139.5 64.5t175 21.5q98 0 167 -12.5t132 -33.5v27q0 113 -68.5 172.5t-197.5 59.5q-92 0 -164 -18.5t-145 -49.5l-68 199q90 41 184.5 65.5t227.5 24.5q242 0 358.5 -120t116.5 -337v-641h-246v133q-55 -66 -141 -111t-209 -45 q-76 0 -146.5 21.5t-123 63.5t-84 104.5t-31.5 144.5zM248 1219l237 299h230l237 -299h-196l-158 137l-158 -137h-192zM328 324q0 -78 60.5 -119t148.5 -41q61 0 113 16.5t91 46t60.5 71.5t21.5 93v68q-47 18 -111.5 30.5t-136.5 12.5q-117 0 -182 -45t-65 -129v-4z" />
<glyph unicode="&#xe3;" horiz-adv-x="1202" d="M82 311v4q0 88 32.5 154t91 109t139.5 64.5t175 21.5q98 0 167 -12.5t132 -33.5v27q0 113 -68.5 172.5t-197.5 59.5q-92 0 -164 -18.5t-145 -49.5l-68 199q90 41 184.5 65.5t227.5 24.5q242 0 358.5 -120t116.5 -337v-641h-246v133q-55 -66 -141 -111t-209 -45 q-76 0 -146.5 21.5t-123 63.5t-84 104.5t-31.5 144.5zM215 1239q35 125 85 190.5t144 65.5q43 0 84 -12.5t79 -27.5t72 -28.5t60 -13.5q45 0 67.5 24.5t45.5 78.5l137 -43q-35 -123 -85 -188.5t-144 -65.5q-43 0 -84 13t-79 28.5t-71 27.5t-61 12q-45 0 -67.5 -24.5 t-45.5 -77.5zM328 324q0 -78 60.5 -119t148.5 -41q61 0 113 16.5t91 46t60.5 71.5t21.5 93v68q-47 18 -111.5 30.5t-136.5 12.5q-117 0 -182 -45t-65 -129v-4z" />
<glyph unicode="&#xe4;" horiz-adv-x="1202" d="M82 311v4q0 88 32.5 154t91 109t139.5 64.5t175 21.5q98 0 167 -12.5t132 -33.5v27q0 113 -68.5 172.5t-197.5 59.5q-92 0 -164 -18.5t-145 -49.5l-68 199q90 41 184.5 65.5t227.5 24.5q242 0 358.5 -120t116.5 -337v-641h-246v133q-55 -66 -141 -111t-209 -45 q-76 0 -146.5 21.5t-123 63.5t-84 104.5t-31.5 144.5zM270 1219v241h252v-241h-252zM328 324q0 -78 60.5 -119t148.5 -41q61 0 113 16.5t91 46t60.5 71.5t21.5 93v68q-47 18 -111.5 30.5t-136.5 12.5q-117 0 -182 -45t-65 -129v-4zM678 1219v241h252v-241h-252z" />
<glyph unicode="&#xe5;" horiz-adv-x="1202" d="M82 311v4q0 88 32.5 154t91 109t139.5 64.5t175 21.5q98 0 167 -12.5t132 -33.5v27q0 113 -68.5 172.5t-197.5 59.5q-92 0 -164 -18.5t-145 -49.5l-68 199q90 41 184.5 65.5t227.5 24.5q242 0 358.5 -120t116.5 -337v-641h-246v133q-55 -66 -141 -111t-209 -45 q-76 0 -146.5 21.5t-123 63.5t-84 104.5t-31.5 144.5zM328 324q0 -78 60.5 -119t148.5 -41q61 0 113 16.5t91 46t60.5 71.5t21.5 93v68q-47 18 -111.5 30.5t-136.5 12.5q-117 0 -182 -45t-65 -129v-4zM367 1440q0 47 19.5 88t51 71.5t74.5 48t88 17.5q47 0 89 -17.5t74 -48 t51.5 -71.5t19.5 -88q0 -45 -19.5 -86t-51.5 -72t-74 -49.5t-89 -18.5q-45 0 -88 18.5t-74.5 49.5t-51 72t-19.5 86zM473 1440q0 -53 37 -90t90 -37t90 37t37 90t-37 90t-90 37t-90 -37t-37 -90z" />
<glyph unicode="&#xe6;" horiz-adv-x="1949" d="M82 317q0 86 32.5 152t91 109t139.5 64.5t175 21.5q98 0 167 -12.5t132 -33.5v27q0 113 -68.5 172.5t-197.5 59.5q-92 0 -164 -18.5t-145 -49.5l-68 199q90 41 183.5 65.5t222.5 24.5q141 0 236 -46t145 -132q66 86 162 135t216 49q127 0 223.5 -47t161 -127t96 -186.5 t31.5 -223.5v-32.5t-2 -34.5h-794q23 -133 106.5 -204t202.5 -71q92 0 160.5 33t134.5 96l145 -129q-78 -92 -185.5 -147.5t-258.5 -55.5q-127 0 -235.5 49.5t-182.5 135.5q-92 -76 -203.5 -129.5t-248.5 -53.5q-92 0 -167 23t-129.5 66t-84 106.5t-29.5 144.5zM328 328 q0 -80 60.5 -122t148.5 -42q94 0 171.5 36t145.5 99q-16 39 -26.5 79t-14.5 87q-47 16 -106.5 26.5t-131.5 10.5q-117 0 -182 -45t-65 -129zM1053 616h557q-6 59 -26.5 111.5t-55.5 91.5t-83 60.5t-110 21.5q-117 0 -191.5 -79t-90.5 -206z" />
<glyph unicode="&#xe7;" horiz-adv-x="1169" d="M96 537q0 117 42 219t117 180t178.5 123t223.5 45q154 0 255.5 -51.5t177.5 -134.5l-154 -166q-57 59 -121.5 97t-159.5 38q-68 0 -125 -28t-98 -75t-64.5 -109.5t-23.5 -133.5q0 -74 23.5 -137.5t66.5 -110.5t102.5 -75t131.5 -28q88 0 154.5 38t125.5 98l150 -148 q-76 -82 -168 -137t-232 -64l-133 -315l-217 90l164 242q-92 23 -169 74t-131 122.5t-85 159.5t-31 187z" />
<glyph unicode="&#xe8;" horiz-adv-x="1236" d="M96 539q0 117 39 220t109.5 180t167 121t213.5 44q129 0 226 -47t161.5 -127t97.5 -186.5t33 -223.5q0 -16 -1 -32.5t-3 -34.5h-795q23 -133 107 -204t204 -71q92 0 160 33t133 96l146 -129q-78 -92 -185.5 -147.5t-257.5 -55.5q-117 0 -218 41t-176 115t-118 178.5 t-43 229.5zM285 1454l225 100l217 -335h-192zM342 616h555q-6 59 -26.5 111.5t-55.5 91.5t-83 60.5t-109 21.5q-115 0 -190 -79t-91 -206z" />
<glyph unicode="&#xe9;" horiz-adv-x="1236" d="M96 539q0 117 39 220t109.5 180t167 121t213.5 44q129 0 226 -47t161.5 -127t97.5 -186.5t33 -223.5q0 -16 -1 -32.5t-3 -34.5h-795q23 -133 107 -204t204 -71q92 0 160 33t133 96l146 -129q-78 -92 -185.5 -147.5t-257.5 -55.5q-117 0 -218 41t-176 115t-118 178.5 t-43 229.5zM342 616h555q-6 59 -26.5 111.5t-55.5 91.5t-83 60.5t-109 21.5q-115 0 -190 -79t-91 -206zM510 1219l217 335l225 -100l-250 -235h-192z" />
<glyph unicode="&#xea;" horiz-adv-x="1236" d="M96 539q0 117 39 220t109.5 180t167 121t213.5 44q129 0 226 -47t161.5 -127t97.5 -186.5t33 -223.5q0 -16 -1 -32.5t-3 -34.5h-795q23 -133 107 -204t204 -71q92 0 160 33t133 96l146 -129q-78 -92 -185.5 -147.5t-257.5 -55.5q-117 0 -218 41t-176 115t-118 178.5 t-43 229.5zM268 1219l238 299h229l238 -299h-197l-158 137l-157 -137h-193zM342 616h555q-6 59 -26.5 111.5t-55.5 91.5t-83 60.5t-109 21.5q-115 0 -190 -79t-91 -206z" />
<glyph unicode="&#xeb;" horiz-adv-x="1236" d="M96 539q0 117 39 220t109.5 180t167 121t213.5 44q129 0 226 -47t161.5 -127t97.5 -186.5t33 -223.5q0 -16 -1 -32.5t-3 -34.5h-795q23 -133 107 -204t204 -71q92 0 160 33t133 96l146 -129q-78 -92 -185.5 -147.5t-257.5 -55.5q-117 0 -218 41t-176 115t-118 178.5 t-43 229.5zM291 1219v241h252v-241h-252zM342 616h555q-6 59 -26.5 111.5t-55.5 91.5t-83 60.5t-109 21.5q-115 0 -190 -79t-91 -206zM698 1219v241h252v-241h-252z" />
<glyph unicode="&#xec;" horiz-adv-x="585" d="M-43 1454l225 100l217 -335h-192zM170 0v1081h248v-1081h-248z" />
<glyph unicode="&#xed;" horiz-adv-x="585" d="M170 0v1081h248v-1081h-248zM186 1219l217 335l226 -100l-250 -235h-193z" />
<glyph unicode="&#xee;" horiz-adv-x="585" d="M-59 1219l237 299h230l237 -299h-196l-158 137l-158 -137h-192zM170 0v1081h248v-1081h-248z" />
<glyph unicode="&#xef;" horiz-adv-x="585" d="M-37 1219v241h252v-241h-252zM170 0v1081h248v-1081h-248zM371 1219v241h252v-241h-252z" />
<glyph unicode="&#xf0;" horiz-adv-x="1314" d="M96 510q0 109 37 198t100.5 153.5t150.5 99t187 34.5q88 0 154 -21.5t131 -62.5l-215 293l-244 -108l-98 129l248 108l-119 162h285l49 -72l203 88l96 -129l-209 -90l182 -264q47 -66 81 -126t55.5 -119.5t32.5 -122t11 -132.5q0 -111 -38.5 -211t-111.5 -175.5 t-178.5 -121t-238.5 -45.5q-119 0 -220 42t-175 115t-115 170t-41 208zM340 504q0 -63 23.5 -120.5t65.5 -101.5t100.5 -70t127.5 -26q72 0 129.5 26t98.5 69t63.5 100t22.5 123t-23.5 122t-65.5 97t-101.5 65.5t-131.5 24.5q-70 0 -127 -23.5t-98 -64.5t-62.5 -98.5 t-21.5 -122.5z" />
<glyph unicode="&#xf1;" horiz-adv-x="1269" d="M156 0v1081h247v-168q53 78 133 134.5t205 56.5q184 0 284.5 -112.5t100.5 -303.5v-688h-247v614q0 127 -60.5 196t-171.5 69q-109 0 -176.5 -71t-67.5 -198v-610h-247zM256 1239q35 125 85 190.5t144 65.5q43 0 84 -12.5t79 -27.5t72 -28.5t60 -13.5q45 0 67.5 24.5 t45.5 78.5l137 -43q-35 -123 -85 -188.5t-144 -65.5q-43 0 -84 13t-79 28.5t-71 27.5t-61 12q-45 0 -67.5 -24.5t-45.5 -77.5z" />
<glyph unicode="&#xf2;" horiz-adv-x="1345" d="M96 537q0 117 44 220t121 180t182.5 122t230.5 45t230.5 -44t182 -121t119.5 -179t43 -219t-44 -219.5t-120.5 -179t-183 -122t-231.5 -45.5q-123 0 -228.5 44t-182.5 121t-120 178.5t-43 218.5zM326 1454l225 100l217 -335h-193zM344 541q0 -72 24.5 -135.5t68.5 -111.5 t104.5 -76t132.5 -28q76 0 136 28t103 75t65.5 109.5t22.5 134.5t-24.5 136t-68.5 111t-104.5 75t-133.5 28q-74 0 -134.5 -28t-103.5 -75t-65.5 -109.5t-22.5 -133.5z" />
<glyph unicode="&#xf3;" horiz-adv-x="1345" d="M96 537q0 117 44 220t121 180t182.5 122t230.5 45t230.5 -44t182 -121t119.5 -179t43 -219t-44 -219.5t-120.5 -179t-183 -122t-231.5 -45.5q-123 0 -228.5 44t-182.5 121t-120 178.5t-43 218.5zM344 541q0 -72 24.5 -135.5t68.5 -111.5t104.5 -76t132.5 -28q76 0 136 28 t103 75t65.5 109.5t22.5 134.5t-24.5 136t-68.5 111t-104.5 75t-133.5 28q-74 0 -134.5 -28t-103.5 -75t-65.5 -109.5t-22.5 -133.5zM576 1219l217 335l225 -100l-250 -235h-192z" />
<glyph unicode="&#xf4;" horiz-adv-x="1345" d="M96 537q0 117 44 220t121 180t182.5 122t230.5 45t230.5 -44t182 -121t119.5 -179t43 -219t-44 -219.5t-120.5 -179t-183 -122t-231.5 -45.5q-123 0 -228.5 44t-182.5 121t-120 178.5t-43 218.5zM319 1219l238 299h229l238 -299h-197l-157 137l-158 -137h-193zM344 541 q0 -72 24.5 -135.5t68.5 -111.5t104.5 -76t132.5 -28q76 0 136 28t103 75t65.5 109.5t22.5 134.5t-24.5 136t-68.5 111t-104.5 75t-133.5 28q-74 0 -134.5 -28t-103.5 -75t-65.5 -109.5t-22.5 -133.5z" />
<glyph unicode="&#xf5;" horiz-adv-x="1345" d="M96 537q0 117 44 220t121 180t182.5 122t230.5 45t230.5 -44t182 -121t119.5 -179t43 -219t-44 -219.5t-120.5 -179t-183 -122t-231.5 -45.5q-123 0 -228.5 44t-182.5 121t-120 178.5t-43 218.5zM285 1239q35 125 85 190.5t144 65.5q43 0 84 -12.5t79 -27.5t72 -28.5 t60 -13.5q45 0 67.5 24.5t45.5 78.5l137 -43q-35 -123 -85 -188.5t-144 -65.5q-43 0 -84 13t-79 28.5t-71 27.5t-61 12q-45 0 -67.5 -24.5t-45.5 -77.5zM344 541q0 -72 24.5 -135.5t68.5 -111.5t104.5 -76t132.5 -28q76 0 136 28t103 75t65.5 109.5t22.5 134.5t-24.5 136 t-68.5 111t-104.5 75t-133.5 28q-74 0 -134.5 -28t-103.5 -75t-65.5 -109.5t-22.5 -133.5z" />
<glyph unicode="&#xf6;" horiz-adv-x="1345" d="M96 537q0 117 44 220t121 180t182.5 122t230.5 45t230.5 -44t182 -121t119.5 -179t43 -219t-44 -219.5t-120.5 -179t-183 -122t-231.5 -45.5q-123 0 -228.5 44t-182.5 121t-120 178.5t-43 218.5zM342 1219v241h252v-241h-252zM344 541q0 -72 24.5 -135.5t68.5 -111.5 t104.5 -76t132.5 -28q76 0 136 28t103 75t65.5 109.5t22.5 134.5t-24.5 136t-68.5 111t-104.5 75t-133.5 28q-74 0 -134.5 -28t-103.5 -75t-65.5 -109.5t-22.5 -133.5zM750 1219v241h251v-241h-251z" />
<glyph unicode="&#xf8;" horiz-adv-x="1345" d="M66 -10l163 182q-63 74 -98 167t-35 198q0 117 44 220t121 180t182.5 122t230.5 45q88 0 166 -23.5t143 -64.5l72 78h225l-166 -187q66 -74 100.5 -167t34.5 -199q0 -117 -44 -219.5t-120.5 -179t-183 -122t-231.5 -45.5q-86 0 -165 24t-145 64l-69 -73h-225zM338 541 q0 -104 51 -189l449 492q-70 49 -168 49q-74 0 -135.5 -27.5t-105.5 -75t-67.5 -112t-23.5 -137.5zM510 233q35 -23 76 -36t88 -13q76 0 137 28t105.5 76t68 111.5t23.5 137.5q0 106 -52 190z" />
<glyph unicode="&#xf9;" horiz-adv-x="1269" d="M143 393v688h248v-614q0 -127 60.5 -195.5t171.5 -68.5q109 0 176 70.5t67 197.5v610h248v-1081h-248v168q-27 -39 -58.5 -73t-73.5 -60.5t-92 -42t-114 -15.5q-184 0 -284.5 113t-100.5 303zM313 1450l226 100l217 -336h-193z" />
<glyph unicode="&#xfa;" horiz-adv-x="1269" d="M143 393v688h248v-614q0 -127 60.5 -195.5t171.5 -68.5q109 0 176 70.5t67 197.5v610h248v-1081h-248v168q-27 -39 -58.5 -73t-73.5 -60.5t-92 -42t-114 -15.5q-184 0 -284.5 113t-100.5 303zM510 1217l217 335l225 -100l-250 -235h-192z" />
<glyph unicode="&#xfb;" horiz-adv-x="1269" d="M143 393v688h248v-614q0 -127 60.5 -195.5t171.5 -68.5q109 0 176 70.5t67 197.5v610h248v-1081h-248v168q-27 -39 -58.5 -73t-73.5 -60.5t-92 -42t-114 -15.5q-184 0 -284.5 113t-100.5 303zM283 1219l237 299h230l237 -299h-196l-158 137l-158 -137h-192z" />
<glyph unicode="&#xfc;" horiz-adv-x="1269" d="M143 393v688h248v-614q0 -127 60.5 -195.5t171.5 -68.5q109 0 176 70.5t67 197.5v610h248v-1081h-248v168q-27 -39 -58.5 -73t-73.5 -60.5t-92 -42t-114 -15.5q-184 0 -284.5 113t-100.5 303zM305 1219v241h252v-241h-252zM713 1219v241h252v-241h-252z" />
<glyph unicode="&#xfd;" horiz-adv-x="1220" d="M53 1081h264l308 -802l280 802h258l-430 -1112q-33 -84 -67.5 -141t-77.5 -93t-94.5 -52.5t-116.5 -16.5q-78 0 -138.5 17.5t-117.5 48.5l84 184q35 -18 70.5 -29.5t74.5 -11.5q53 0 88 26.5t66 98.5zM500 1214l217 336l225 -100l-250 -236h-192z" />
<glyph unicode="&#xfe;" d="M156 -328v1823h247v-594q59 86 147.5 144.5t219.5 58.5q96 0 186.5 -37t161 -109.5t113.5 -177t43 -239.5t-42 -239.5t-112.5 -177.5t-162 -110t-187.5 -37q-133 0 -221 57.5t-146 133.5v-496h-247zM397 541q0 -80 26 -143.5t69 -109.5t100 -70.5t121 -24.5 q63 0 119.5 24.5t98.5 69.5t66.5 109.5t24.5 144.5t-24.5 144.5t-66.5 109.5t-98.5 69.5t-119.5 24.5t-120.5 -24.5t-100.5 -70.5t-69 -109.5t-26 -143.5z" />
<glyph unicode="&#xff;" horiz-adv-x="1220" d="M53 1081h264l308 -802l280 802h258l-430 -1112q-33 -84 -67.5 -141t-77.5 -93t-94.5 -52.5t-116.5 -16.5q-78 0 -138.5 17.5t-117.5 48.5l84 184q35 -18 70.5 -29.5t74.5 -11.5q53 0 88 26.5t66 98.5zM280 1219v241h252v-241h-252zM688 1219v241h252v-241h-252z" />
<glyph unicode="&#x152;" horiz-adv-x="2248" d="M121 715q0 152 55 283.5t156.5 228t242 152t308.5 55.5h1241v-226h-766v-372h674v-226h-674v-385h776v-225h-1251q-168 0 -308.5 54.5t-242 150.5t-156.5 227t-55 283zM385 719q0 -106 36 -195.5t100.5 -155t156.5 -102.5t205 -37h223v975h-223q-113 0 -205 -35.5 t-156.5 -100t-100.5 -154t-36 -195.5z" />
<glyph unicode="&#x153;" horiz-adv-x="2129" d="M96 537q0 117 44 220t121 180t181.5 122t225.5 45q141 0 254.5 -63.5t185.5 -168.5q66 104 172 168t242 64q127 0 222 -47t159.5 -127t97.5 -186.5t33 -223.5q0 -16 -1 -32.5t-3 -34.5h-795q23 -133 107.5 -204t203.5 -71q92 0 161 33t134 96l146 -129 q-78 -92 -186.5 -147.5t-256.5 -55.5q-143 0 -257.5 61.5t-182.5 172.5q-72 -104 -187.5 -169t-259.5 -65q-117 0 -219 44t-178 121t-120 178.5t-44 218.5zM344 541q0 -72 24.5 -135.5t67.5 -111.5t102.5 -76t129.5 -28q74 0 132 28t100 75t64.5 109.5t22.5 134.5t-23.5 136 t-66.5 111t-102.5 75t-130.5 28q-74 0 -132.5 -28t-100.5 -75t-64.5 -109.5t-22.5 -133.5zM1233 616h557q-6 59 -27.5 111.5t-55.5 91.5t-82 60.5t-109 21.5q-117 0 -192 -79t-91 -206z" />
<glyph unicode="&#x178;" horiz-adv-x="1466" d="M37 1434h297l401 -635l406 635h289l-570 -863v-571h-254v565zM403 1550v242h252v-242h-252zM811 1550v242h252v-242h-252z" />
<glyph unicode="&#x2c6;" horiz-adv-x="1024" d="M160 1219l237 299h230l237 -299h-196l-158 137l-158 -137h-192z" />
<glyph unicode="&#x2dc;" horiz-adv-x="1024" d="M125 1239q35 125 85 190.5t144 65.5q43 0 84 -12.5t79 -27.5t72 -28.5t60 -13.5q45 0 67.5 24.5t45.5 78.5l137 -43q-35 -123 -85 -188.5t-144 -65.5q-43 0 -84 13t-79 28.5t-71 27.5t-61 12q-45 0 -67.5 -24.5t-45.5 -77.5z" />
<glyph unicode="&#x2000;" horiz-adv-x="944" />
<glyph unicode="&#x2001;" horiz-adv-x="1888" />
<glyph unicode="&#x2002;" horiz-adv-x="944" />
<glyph unicode="&#x2003;" horiz-adv-x="1888" />
<glyph unicode="&#x2004;" horiz-adv-x="629" />
<glyph unicode="&#x2005;" horiz-adv-x="472" />
<glyph unicode="&#x2006;" horiz-adv-x="314" />
<glyph unicode="&#x2007;" horiz-adv-x="314" />
<glyph unicode="&#x2008;" horiz-adv-x="236" />
<glyph unicode="&#x2009;" horiz-adv-x="377" />
<glyph unicode="&#x200a;" horiz-adv-x="104" />
<glyph unicode="&#x2010;" horiz-adv-x="835" d="M115 506v244h606v-244h-606z" />
<glyph unicode="&#x2011;" horiz-adv-x="835" d="M115 506v244h606v-244h-606z" />
<glyph unicode="&#x2012;" horiz-adv-x="835" d="M115 506v244h606v-244h-606z" />
<glyph unicode="&#x2013;" horiz-adv-x="1081" d="M115 510v235h852v-235h-852z" />
<glyph unicode="&#x2014;" horiz-adv-x="1839" d="M115 510v235h1609v-235h-1609z" />
<glyph unicode="&#x2018;" horiz-adv-x="550" d="M129 864v240q0 172 80 250t235 90l27 -107q-188 -35 -174 -190h104v-283h-272z" />
<glyph unicode="&#x2019;" horiz-adv-x="550" d="M80 961q188 35 174 192h-104v281h272v-240q0 -172 -80 -250t-236 -90z" />
<glyph unicode="&#x201a;" horiz-adv-x="550" d="M70 -193q188 37 174 193h-105v281h273v-238q0 -172 -80 -250t-236 -90z" />
<glyph unicode="&#x201c;" horiz-adv-x="1026" d="M129 864v240q0 172 80 250t235 90l27 -107q-188 -35 -174 -190h104v-283h-272zM604 864v240q0 172 80 250t236 90l26 -107q-188 -35 -176 -190h107v-283h-273z" />
<glyph unicode="&#x201d;" horiz-adv-x="1026" d="M80 961q188 35 174 192h-104v281h272v-240q0 -172 -80 -250t-236 -90zM555 961q188 35 174 192h-104v281h272v-240q0 -172 -80 -250t-235 -90z" />
<glyph unicode="&#x201e;" horiz-adv-x="1026" d="M70 -193q188 37 174 193h-105v281h273v-238q0 -172 -80 -250t-236 -90zM545 -193q188 37 174 193h-105v281h273v-238q0 -172 -80 -250t-236 -90z" />
<glyph unicode="&#x2022;" horiz-adv-x="1005" d="M213 721q0 59 22.5 112.5t62.5 92.5t92 61.5t112 22.5q59 0 112.5 -22.5t93.5 -61.5t62.5 -92.5t22.5 -112.5t-22.5 -112.5t-62.5 -92.5t-93.5 -61.5t-112.5 -22.5t-111.5 22.5t-92.5 61.5t-62.5 92.5t-22.5 112.5z" />
<glyph unicode="&#x2026;" horiz-adv-x="1622" d="M139 0v274h267v-274h-267zM678 0v274h266v-274h-266zM1217 0v274h266v-274h-266z" />
<glyph unicode="&#x202f;" horiz-adv-x="377" />
<glyph unicode="&#x2039;" horiz-adv-x="724" d="M90 532v17l340 450l188 -96l-270 -360l270 -363l-188 -96z" />
<glyph unicode="&#x203a;" horiz-adv-x="724" d="M109 178l270 361l-270 362l188 98l338 -450v-17l-338 -448z" />
<glyph unicode="&#x205f;" horiz-adv-x="472" />
<glyph unicode="&#x2122;" horiz-adv-x="1413" d="M53 1323v111h510v-111h-194v-520h-121v520h-195zM698 803v631h129l191 -299l190 299h125v-631h-116v448l-195 -303h-12l-195 303v-448h-117z" />
<glyph unicode="&#x25fc;" horiz-adv-x="1085" d="M0 0v1085h1085v-1085h-1085z" />
</font>
</defs>
</svg>
